<?xml version="1.0" encoding="UTF-8"?><svg xmlns="http://www.w3.org/2000/svg" viewBox="0 0 72.25 65.16"><defs><style>.d{fill:#eaeaea;}.e{fill:#fec600;}</style></defs><g id="a"/><g id="b"><g id="c"><circle class="e" cx="36.67" cy="32.58" r="32.58"/><path class="d" d="M65.69,11.26c.69-.11,1.41-.1,2.12,0,6.57,.99,5.56,10.9-1.08,10.9h-11.78c-1.06,0-2.12-.28-2.99-.88-5.63-3.84-7.19-11.09-3.21-15.07,4.31-4.31,14.89-4.34,16.95,5.06Z"/><path class="d" d="M11,47.01c-5.8-.89-12.76,3.48-10.6,11.7,.63,2.39,2.84,4.03,5.3,4.03H27.23c1.03,0,2.05-.29,2.93-.84,8.67-5.41,11.21-16.29,5.31-22.19-6.22-6.22-21.49-6.27-24.47,7.3Z"/></g></g></svg>