<?xml version="1.0" encoding="UTF-8"?><svg xmlns="http://www.w3.org/2000/svg" viewBox="0 0 64.78 60.21"><defs><style>.d{fill:#eaeaea;}</style></defs><g id="a"/><g id="b"><g id="c"><path class="d" d="M0,27.34H64.4c1.22-9.32-4.46-27.34-21.67-27.34S20.05,17.01,20.05,19.04c0,0-11.14-9.52-20.05,8.3Z"/><path class="d" d="M3.81,32.9c-2.26,0-3.85,2.44-2.73,4.41,.33,.59,.83,.99,1.38,.99H61.8c1.01,0,2.01-.47,2.53-1.34,1.06-1.79,.21-4.06-2.11-4.06H3.81Z"/><path class="d" d="M3.81,43.85c-2.26,0-3.85,2.44-2.73,4.41,.33,.59,.83,.99,1.38,.99H61.8c1.01,0,2.01-.47,2.53-1.34,1.06-1.79,.21-4.06-2.11-4.06H3.81Z"/><path class="d" d="M3.81,54.81c-2.26,0-3.85,2.44-2.73,4.41,.33,.59,.83,.99,1.38,.99H61.8c1.01,0,2.01-.47,2.53-1.34,1.06-1.79,.21-4.06-2.11-4.06H3.81Z"/></g></g></svg>