<?xml version="1.0" encoding="UTF-8"?><svg xmlns="http://www.w3.org/2000/svg" viewBox="0 0 69.73 68.92"><defs><style>.d{fill:#eaeaea;}.e{fill:#5995ed;}</style></defs><g id="a"/><g id="b"><g id="c"><path class="d" d="M20.97,20.1C11.07,15.15-3.98,22.67,.97,38.7c3.56,9.7,12.07,9.3,12.07,9.3H51.25c9.9-5.34,23.16-15.64,16.83-33.65S28.88-7.81,20.97,20.1Z"/><path class="e" d="M28.37,55.59c-5.33,2.34-8.53,7.35-6.4,11.19s13.64,3.84,6.4-11.19Z"/><path class="e" d="M45.14,55.59c-5.33,2.34-8.53,7.35-6.4,11.19s13.64,3.84,6.4-11.19Z"/><path class="e" d="M20.7,38.19c-5.71,2.51-9.14,7.88-6.85,11.99s14.62,4.11,6.85-11.99Z"/><path class="e" d="M36.92,38.19c-5.71,2.51-9.14,7.88-6.85,11.99s14.62,4.11,6.85-11.99Z"/><path class="e" d="M53.14,39.02c-5.71,2.51-9.14,7.88-6.85,11.99s14.62,4.11,6.85-11.99Z"/></g></g></svg>