<?xml version="1.0" encoding="UTF-8"?><svg xmlns="http://www.w3.org/2000/svg" viewBox="0 0 69.73 65.99"><defs><style>.d{fill:#eaeaea;}</style></defs><g id="a"/><g id="b"><g id="c"><path class="d" d="M20.97,20.1C11.07,15.15-3.98,22.67,.97,38.7c3.04,8.25,12.07,9.3,12.07,9.3h31.36c5.17,0,10.24-1.64,14.32-4.81,7.7-5.99,14.14-15.2,9.35-28.84C61.74-3.66,28.88-7.81,20.97,20.1Z"/><path class="d" d="M32.58,57.08l-5.38,2.2-.04,.06,5.19,2.2-1.28,2.17-4.47-3.41-.04,.06,.8,5.63-2.68-.04,.72-5.59-.06-.04-4.72,3.27-1.14-2.22,5.32-2.1,.04-.06-5.07-2.18,1.28-2.17,4.33,3.37,.04-.06-.7-5.66,2.6,.03-.64,5.6,.06,.04,4.58-3.32,1.27,2.21Z"/><path class="d" d="M51.53,57.08l-5.38,2.2-.04,.06,5.19,2.2-1.28,2.17-4.47-3.41-.04,.06,.8,5.63-2.68-.04,.72-5.59-.06-.04-4.72,3.27-1.14-2.22,5.32-2.1,.04-.06-5.07-2.18,1.28-2.17,4.33,3.37,.04-.06-.7-5.66,2.6,.03-.64,5.6,.06,.04,4.58-3.32,1.27,2.21Z"/></g></g></svg>