<?xml version="1.0" encoding="UTF-8"?><svg xmlns="http://www.w3.org/2000/svg" viewBox="0 0 69.73 67.59"><defs><style>.d{fill:#eaeaea;}.e{fill:#fec600;}.f{fill:#5995ed;}</style></defs><g id="a"/><g id="b"><g id="c"><path class="d" d="M20.97,20.1C11.07,15.15-3.98,22.67,.97,38.7c3.56,9.7,12.07,9.3,12.07,9.3H51.25c9.9-5.34,23.16-15.64,16.83-33.65S28.88-7.81,20.97,20.1Z"/><path class="f" d="M45.99,39.02c-5.71,2.51-9.14,7.88-6.85,11.99s14.62,4.11,6.85-11.99Z"/><path class="f" d="M36.92,53.3c-5.71,2.51-9.14,7.88-6.85,11.99s14.62,4.11,6.85-11.99Z"/><path class="f" d="M53.14,53.3c-5.71,2.51-9.14,7.88-6.85,11.99s14.62,4.11,6.85-11.99Z"/><polygon class="e" points="20.66 28.8 8.17 51.72 16.08 51.72 16.08 67.21 29.35 44.45 20.34 44.45 20.66 28.8"/></g></g></svg>